<?xml version="1.0" encoding="UTF-8" standalone="yes"?><svg xmlns="http://www.w3.org/2000/svg" xmlns:xlink="http://www.w3.org/1999/xlink" height="613px" style="width:857px;height:613px;" version="1.1" viewBox="0 0 857 613" width="857px"><defs><filter height="300%" id="f1" width="300%" x="-1" y="-1"><feGaussianBlur result="blurOut" stdDeviation="2.0"/><feColorMatrix in="blurOut" result="blurOut2" type="matrix" values="0 0 0 0 0 0 0 0 0 0 0 0 0 0 0 0 0 0 .4 0"/><feOffset dx="4.0" dy="4.0" in="blurOut2" result="blurOut3"/><feBlend in="SourceGraphic" in2="blurOut3" mode="normal"/></filter></defs><g><ellipse cx="697.5" cy="18" fill="#000000" filter="url(#f1)" rx="10" ry="10" style="stroke: none; stroke-width: 1.0;"/><rect fill="#FEFECE" filter="url(#f1)" height="33.9688" rx="12.5" ry="12.5" style="stroke: #A80036; stroke-width: 1.5;" width="117" x="639" y="68"/><text fill="#000000" font-family="sans-serif" font-size="12" lengthAdjust="spacingAndGlyphs" textLength="97" x="649" y="89.1387">TikaEngine.java</text><polygon fill="#FBFB77" filter="url(#f1)" points="310,72.5,310,97.6328,619,97.6328,619,82.5,609,72.5,310,72.5" style="stroke: #A80036; stroke-width: 1.0;"/><polygon fill="#FBFB77" points="310,72.5,310,97.6328,619,97.6328,619,90.5,638.795,85,619,82.5,619,82.5,609,72.5,310,72.5" style="stroke: #A80036; stroke-width: 1.0;"/><line style="stroke: #A80036; stroke-width: 1.0;" x1="609" x2="609" y1="72.5" y2="82.5"/><line style="stroke: #A80036; stroke-width: 1.0;" x1="619" x2="609" y1="82.5" y2="82.5"/><text fill="#000000" font-family="sans-serif" font-size="13" lengthAdjust="spacingAndGlyphs" textLength="288" x="316" y="89.5669">TikaEngine.java exrahiert Plaintext aus HTML.</text><rect fill="#FEFECE" filter="url(#f1)" height="33.9688" rx="12.5" ry="12.5" style="stroke: #A80036; stroke-width: 1.5;" width="302" x="546.5" y="142"/><text fill="#000000" font-family="sans-serif" font-size="12" lengthAdjust="spacingAndGlyphs" textLength="282" x="556.5" y="163.1387">LanguageDetectionEnhancementEngine.java</text><rect fill="#FEFECE" filter="url(#f1)" height="33.9688" rx="12.5" ry="12.5" style="stroke: #A80036; stroke-width: 1.5;" width="266" x="564.5" y="216"/><text fill="#000000" font-family="sans-serif" font-size="12" lengthAdjust="spacingAndGlyphs" textLength="246" x="574.5" y="237.1387">OpenNlpSentenceDetectionEngine.java</text><rect fill="#FEFECE" filter="url(#f1)" height="33.9688" rx="12.5" ry="12.5" style="stroke: #A80036; stroke-width: 1.5;" width="204" x="595.5" y="290"/><text fill="#000000" font-family="sans-serif" font-size="12" lengthAdjust="spacingAndGlyphs" textLength="184" x="605.5" y="311.1387">OpenNlpTokenizerEngine.java</text><rect fill="#FEFECE" filter="url(#f1)" height="33.9688" rx="12.5" ry="12.5" style="stroke: #A80036; stroke-width: 1.5;" width="218" x="588.5" y="364"/><text fill="#000000" font-family="sans-serif" font-size="12" lengthAdjust="spacingAndGlyphs" textLength="198" x="598.5" y="385.1387">OpenNlpPosTaggingEngine.java</text><rect fill="#FEFECE" filter="url(#f1)" height="33.9688" rx="12.5" ry="12.5" style="stroke: #A80036; stroke-width: 1.5;" width="321" x="247" y="364"/><text fill="#000000" font-family="sans-serif" font-size="12" lengthAdjust="spacingAndGlyphs" textLength="301" x="257" y="385.1387">NamedEntityExtractionEnhancementEngine.java</text><rect fill="#FEFECE" filter="url(#f1)" height="33.9688" rx="12.5" ry="12.5" style="stroke: #A80036; stroke-width: 1.5;" width="221" x="6" y="364"/><text fill="#000000" font-family="sans-serif" font-size="12" lengthAdjust="spacingAndGlyphs" textLength="201" x="16" y="385.1387">NamedEntityTaggingEngine.java</text><rect fill="#FEFECE" filter="url(#f1)" height="33.9688" rx="12.5" ry="12.5" style="stroke: #A80036; stroke-width: 1.5;" width="170" x="31.5" y="438"/><text fill="#000000" font-family="sans-serif" font-size="12" lengthAdjust="spacingAndGlyphs" textLength="150" x="41.5" y="459.1387">EntityLinkingEngine.java</text><rect fill="#FEFECE" filter="url(#f1)" height="33.9688" rx="12.5" ry="12.5" style="stroke: #A80036; stroke-width: 1.5;" width="205" x="14" y="512"/><text fill="#000000" font-family="sans-serif" font-size="12" lengthAdjust="spacingAndGlyphs" textLength="185" x="24" y="533.1387">EntityDereferenceEngine.java</text><ellipse cx="116.5" cy="596" fill="none" filter="url(#f1)" rx="10" ry="10" style="stroke: #000000; stroke-width: 1.0;"/><ellipse cx="117" cy="596.5" fill="#000000" rx="6" ry="6" style="stroke: none; stroke-width: 1.0;"/><path d="M697.5,28.038 C697.5,36.932 697.5,50.844 697.5,62.572 " fill="none" style="stroke: #A80036; stroke-width: 1.0;"/><polygon fill="#A80036" points="697.5,67.781,701.5,58.781,697.5,62.781,693.5,58.781,697.5,67.781" style="stroke: #A80036; stroke-width: 1.0;"/><path d="M697.5,102.338 C697.5,112.464 697.5,125.584 697.5,136.543 " fill="none" style="stroke: #A80036; stroke-width: 1.0;"/><polygon fill="#A80036" points="697.5,141.727,701.5,132.727,697.5,136.727,693.5,132.727,697.5,141.727" style="stroke: #A80036; stroke-width: 1.0;"/><path d="M697.5,176.338 C697.5,186.464 697.5,199.584 697.5,210.543 " fill="none" style="stroke: #A80036; stroke-width: 1.0;"/><polygon fill="#A80036" points="697.5,215.727,701.5,206.727,697.5,210.727,693.5,206.727,697.5,215.727" style="stroke: #A80036; stroke-width: 1.0;"/><path d="M697.5,250.338 C697.5,260.464 697.5,273.584 697.5,284.543 " fill="none" style="stroke: #A80036; stroke-width: 1.0;"/><polygon fill="#A80036" points="697.5,289.727,701.5,280.727,697.5,284.727,693.5,280.727,697.5,289.727" style="stroke: #A80036; stroke-width: 1.0;"/><path d="M697.5,324.338 C697.5,334.464 697.5,347.584 697.5,358.543 " fill="none" style="stroke: #A80036; stroke-width: 1.0;"/><polygon fill="#A80036" points="697.5,363.727,701.5,354.727,697.5,358.727,693.5,354.727,697.5,363.727" style="stroke: #A80036; stroke-width: 1.0;"/><path d="M573.132,381 C578.187,381 583.243,381 588.299,381 " fill="none" style="stroke: #A80036; stroke-width: 1.0;"/><polygon fill="#A80036" points="568.076,381,577.076,385,573.076,381,577.076,377,568.076,381" style="stroke: #A80036; stroke-width: 1.0;"/><path d="M232.289,381 C237.12,381 241.952,381 246.783,381 " fill="none" style="stroke: #A80036; stroke-width: 1.0;"/><polygon fill="#A80036" points="227.046,381,236.046,385,232.046,381,236.046,377,227.046,381" style="stroke: #A80036; stroke-width: 1.0;"/><path d="M116.5,398.338 C116.5,408.464 116.5,421.584 116.5,432.543 " fill="none" style="stroke: #A80036; stroke-width: 1.0;"/><polygon fill="#A80036" points="116.5,437.727,120.5,428.727,116.5,432.727,112.5,428.727,116.5,437.727" style="stroke: #A80036; stroke-width: 1.0;"/><path d="M116.5,472.338 C116.5,482.464 116.5,495.584 116.5,506.5432 " fill="none" style="stroke: #A80036; stroke-width: 1.0;"/><polygon fill="#A80036" points="116.5,511.7267,120.5,502.7267,116.5,506.7267,112.5,502.7267,116.5,511.7267" style="stroke: #A80036; stroke-width: 1.0;"/><path d="M116.5,546.0674 C116.5,556.5986 116.5,570.2536 116.5,580.4618 " fill="none" style="stroke: #A80036; stroke-width: 1.0;"/><polygon fill="#A80036" points="116.5,585.7367,120.5,576.7367,116.5,580.7367,112.5,576.7367,116.5,585.7367" style="stroke: #A80036; stroke-width: 1.0;"/></g></svg>