<?xml version="1.0" encoding="UTF-8" standalone="yes"?><svg xmlns="http://www.w3.org/2000/svg" xmlns:xlink="http://www.w3.org/1999/xlink" height="509px" style="width:1122px;height:509px;" version="1.1" viewBox="0 0 1122 509" width="1122px"><defs><filter height="300%" id="f1" width="300%" x="-1" y="-1"><feGaussianBlur result="blurOut" stdDeviation="2.0"/><feColorMatrix in="blurOut" result="blurOut2" type="matrix" values="0 0 0 0 0 0 0 0 0 0 0 0 0 0 0 0 0 0 .4 0"/><feOffset dx="4.0" dy="4.0" in="blurOut2" result="blurOut3"/><feBlend in="SourceGraphic" in2="blurOut3" mode="normal"/></filter></defs><g><ellipse cx="173.5" cy="18" fill="#000000" filter="url(#f1)" rx="10" ry="10" style="stroke: none; stroke-width: 1.0;"/><rect fill="#FEFECE" filter="url(#f1)" height="33.9688" rx="12.5" ry="12.5" style="stroke: #A80036; stroke-width: 1.5;" width="292" x="27.5" y="85"/><text fill="#000000" font-family="sans-serif" font-size="12" lengthAdjust="spacingAndGlyphs" textLength="272" x="37.5" y="106.1387">Suchanfrage des Benutzers wurde erhalten</text><rect fill="#FEFECE" filter="url(#f1)" height="33.9688" rx="12.5" ry="12.5" style="stroke: #A80036; stroke-width: 1.5;" width="240" x="53.5" y="160"/><text fill="#000000" font-family="sans-serif" font-size="12" lengthAdjust="spacingAndGlyphs" textLength="220" x="63.5" y="181.1387">Die Anfrage an Suchproxy schicken</text><rect fill="#FEFECE" filter="url(#f1)" height="33.9688" rx="12.5" ry="12.5" style="stroke: #A80036; stroke-width: 1.5;" width="335" x="6" y="251"/><text fill="#000000" font-family="sans-serif" font-size="12" lengthAdjust="spacingAndGlyphs" textLength="315" x="16" y="272.1387">Ergebnisse für die Analyse an Stanbol weiterleiten</text><rect fill="#FEFECE" filter="url(#f1)" height="33.9688" rx="12.5" ry="12.5" style="stroke: #A80036; stroke-width: 1.5;" width="216" x="380.5" y="251"/><text fill="#000000" font-family="sans-serif" font-size="12" lengthAdjust="spacingAndGlyphs" textLength="196" x="390.5" y="272.1387">Enchancement-Prozess starten</text><rect fill="#FEFECE" filter="url(#f1)" height="33.9688" rx="12.5" ry="12.5" style="stroke: #A80036; stroke-width: 1.5;" width="222" x="636.5" y="251"/><text fill="#000000" font-family="sans-serif" font-size="12" lengthAdjust="spacingAndGlyphs" textLength="202" x="646.5" y="272.1387">Text aus HTML extrahieren (tika)</text><rect fill="#FEFECE" filter="url(#f1)" height="33.9688" rx="12.5" ry="12.5" style="stroke: #A80036; stroke-width: 1.5;" width="136" x="898.5" y="251"/><text fill="#000000" font-family="sans-serif" font-size="12" lengthAdjust="spacingAndGlyphs" textLength="116" x="908.5" y="272.1387">Sprache erkennen</text><polygon fill="#FEFECE" filter="url(#f1)" points="966.5,326,978.5,338,966.5,350,954.5,338,966.5,326" style="stroke: #A80036; stroke-width: 1.5;"/><rect fill="#FEFECE" filter="url(#f1)" height="33.9688" rx="12.5" ry="12.5" style="stroke: #A80036; stroke-width: 1.5;" width="271" x="651" y="407"/><text fill="#000000" font-family="sans-serif" font-size="12" lengthAdjust="spacingAndGlyphs" textLength="251" x="661" y="428.1387">Fehlermeldung an den Benutzer senden</text><ellipse cx="786.5" cy="492" fill="none" filter="url(#f1)" rx="10" ry="10" style="stroke: #000000; stroke-width: 1.0;"/><ellipse cx="787" cy="492.5" fill="#000000" rx="6" ry="6" style="stroke: none; stroke-width: 1.0;"/><rect fill="#FEFECE" filter="url(#f1)" height="33.9688" rx="12.5" ry="12.5" style="stroke: #A80036; stroke-width: 1.5;" width="171" x="942" y="407"/><text fill="#000000" font-family="sans-serif" font-size="12" lengthAdjust="spacingAndGlyphs" textLength="151" x="952" y="428.1387">Extraktion von Entitäten</text><path d="M173.5,28.089 C173.5,40.377 173.5,62.673 173.5,79.386 " fill="none" style="stroke: #A80036; stroke-width: 1.0;"/><polygon fill="#A80036" points="173.5,84.818,177.5,75.818,173.5,79.818,169.5,75.818,173.5,84.818" style="stroke: #A80036; stroke-width: 1.0;"/><text fill="#000000" font-family="sans-serif" font-size="13" lengthAdjust="spacingAndGlyphs" textLength="81" x="174.5" y="61.0669">Suchanfrage</text><path d="M173.5,119.201 C173.5,129.692 173.5,143.463 173.5,154.818 " fill="none" style="stroke: #A80036; stroke-width: 1.0;"/><polygon fill="#A80036" points="173.5,159.844,177.5,150.844,173.5,154.844,169.5,150.844,173.5,159.844" style="stroke: #A80036; stroke-width: 1.0;"/><path d="M173.5,194.324 C173.5,208.751 173.5,229.892 173.5,245.657 " fill="none" style="stroke: #A80036; stroke-width: 1.0;"/><polygon fill="#A80036" points="173.5,250.78,177.5,241.78,173.5,245.78,169.5,241.78,173.5,250.78" style="stroke: #A80036; stroke-width: 1.0;"/><text fill="#000000" font-family="sans-serif" font-size="13" lengthAdjust="spacingAndGlyphs" textLength="179" x="174.5" y="227.0669">Ergebnisse (JSON oder XML)</text><path d="M341.151,268 C352.465,268 363.779,268 375.093,268 " fill="none" style="stroke: #A80036; stroke-width: 1.0;"/><polygon fill="#A80036" points="380.291,268,371.291,264,375.291,268,371.291,272,380.291,268" style="stroke: #A80036; stroke-width: 1.0;"/><path d="M596.501,268 C608.01,268 619.519,268 631.027,268 " fill="none" style="stroke: #A80036; stroke-width: 1.0;"/><polygon fill="#A80036" points="636.315,268,627.315,264,631.315,268,627.315,272,636.315,268" style="stroke: #A80036; stroke-width: 1.0;"/><path d="M858.711,268 C870.152,268 881.592,268 893.033,268 " fill="none" style="stroke: #A80036; stroke-width: 1.0;"/><polygon fill="#A80036" points="898.29,268,889.29,264,893.29,268,889.29,272,898.29,268" style="stroke: #A80036; stroke-width: 1.0;"/><path d="M966.5,285.115 C966.5,295.916 966.5,310.082 966.5,320.883 " fill="none" style="stroke: #A80036; stroke-width: 1.0;"/><polygon fill="#A80036" points="966.5,325.885,970.5,316.885,966.5,320.885,962.5,316.885,966.5,325.885" style="stroke: #A80036; stroke-width: 1.0;"/><text fill="#000000" font-family="sans-serif" font-size="13" lengthAdjust="spacingAndGlyphs" textLength="157" x="789.3844" y="317.9426">Sprache wird unterstützt</text><path d="M958.766,342.609 C936.172,353.153 869.126,384.441 825.648,404.7308 " fill="none" style="stroke: #A80036; stroke-width: 1.0;"/><polygon fill="#A80036" points="820.993,406.9033,830.8402,406.7224,825.524,404.789,827.4574,399.4728,820.993,406.9033" style="stroke: #A80036; stroke-width: 1.0;"/><text fill="#000000" font-family="sans-serif" font-size="13" lengthAdjust="spacingAndGlyphs" textLength="30" x="898.5" y="383.0669">false</text><path d="M786.5,441.3146 C786.5,452.2368 786.5,466.4683 786.5,476.8993 " fill="none" style="stroke: #A80036; stroke-width: 1.0;"/><polygon fill="#A80036" points="786.5,481.97,790.5,472.97,786.5,476.97,782.5,472.97,786.5,481.97" style="stroke: #A80036; stroke-width: 1.0;"/><path d="M971.287,345.591 C980.112,357.745 999.279,384.138 1012.77,402.7142 " fill="none" style="stroke: #A80036; stroke-width: 1.0;"/><polygon fill="#A80036" points="1015.73,406.7853,1013.6745,397.1533,1012.7904,402.7407,1007.2031,401.8566,1015.73,406.7853" style="stroke: #A80036; stroke-width: 1.0;"/><text fill="#000000" font-family="sans-serif" font-size="13" lengthAdjust="spacingAndGlyphs" textLength="26" x="1001.5" y="383.0669">true</text></g></svg>